Coordinates
version=1
nRows=10
nColumns=40
inDegrees=yes

Units are S.I. units (second, meters, Newtons, ...)
If the header above contains a line with 'inDegrees', this indicates whether rotational values are in degrees (yes) or radians (no).

endheader
time	pelvis_tilt	pelvis_list	pelvis_rotation	pelvis_tx	pelvis_ty	pelvis_tz	hip_flexion_r	hip_adduction_r	hip_rotation_r	knee_angle_r	knee_angle_r_beta	ankle_angle_r	subtalar_angle_r	mtp_angle_r	hip_flexion_l	hip_adduction_l	hip_rotation_l	knee_angle_l	knee_angle_l_beta	ankle_angle_l	subtalar_angle_l	mtp_angle_l	lumbar_extension	lumbar_bending	lumbar_rotation	arm_flex_r	arm_add_r	arm_rot_r	elbow_flex_r	pro_sup_r	wrist_flex_r	wrist_dev_r	arm_flex_l	arm_add_l	arm_rot_l	elbow_flex_l	pro_sup_l	wrist_flex_l	wrist_dev_l
      2.20000000	     -7.17006396	      4.65508793	      2.54549183	     -0.30544995	      0.98885709	     -0.74049713	     16.36757162	     -1.11712152	     -5.82966731	     21.17850989	      0.36963473	     -4.18249522	      0.00000000	      0.00000000	     23.02813025	     -2.30555941	     -1.40433459	     86.32305454	      1.50662152	    -10.65229411	      0.00000000	      0.00000000	     -4.18452273	     -1.11469691	     -2.66902091	     80.97660398	     -7.87411942	     27.63336601	     29.13870215	     76.84400814	      0.00000000	      0.00000000	     77.79763002	    -13.49967724	     29.29983959	     35.95571295	     78.25431716	      0.00000000	      0.00000000
      2.20500000	     -7.31098188	      4.64492280	      2.57985832	     -0.30607154	      0.98833907	     -0.74052714	     16.62351741	     -1.12128084	     -5.84879872	     21.29139368	      0.37160492	     -4.15722121	      0.00000000	      0.00000000	     23.07381646	     -2.29316617	     -1.31045692	     86.25487912	      1.50543164	    -10.66795838	      0.00000000	      0.00000000	     -4.19477221	     -1.08952139	     -2.72808282	     81.12155669	     -7.77973375	     27.53386720	     29.12098723	     76.67366798	      0.00000000	      0.00000000	     77.88399076	    -13.44336214	     29.09398966	     35.93635204	     78.16425655	      0.00000000	      0.00000000
      2.21000000	     -7.46435408	      4.66099412	      2.58947401	     -0.30671746	      0.98772519	     -0.74048295	     16.94955227	     -1.15065138	     -5.85887441	     21.54081504	      0.37595815	     -4.04824799	      0.00000000	      0.00000000	     23.13115883	     -2.28493229	     -1.25110902	     86.24461699	      1.50525253	    -10.69864991	      0.00000000	      0.00000000	     -4.19332652	     -1.13319152	     -2.80503100	     81.19290365	     -7.74193450	     27.31457750	     29.20902142	     76.40676895	      0.00000000	      0.00000000	     77.96540441	    -13.44592027	     28.81595456	     36.02426043	     77.97086554	      0.00000000	      0.00000000
      2.21500000	     -7.55651098	      4.53881687	      2.62969574	     -0.30737060	      0.98720813	     -0.74041675	     17.20228870	     -1.01817523	     -5.74851981	     21.77784141	      0.38009504	     -3.95051672	      0.00000000	      0.00000000	     23.12445052	     -2.39295832	     -1.08531510	     86.21622153	      1.50475693	    -10.56696937	      0.00000000	      0.00000000	     -4.25480129	     -0.98969708	     -2.82321431	     81.40674420	     -7.75581920	     27.58120255	     29.10564139	     76.33936070	      0.00000000	      0.00000000	     78.20457317	    -13.44105683	     29.10739761	     35.87718366	     77.96396572	      0.00000000	      0.00000000
      2.22000000	     -7.77073949	      4.63773839	      2.67586622	     -0.30804783	      0.98657322	     -0.74052438	     17.62156209	     -1.17771562	     -5.84056832	     22.09277034	      0.38559158	     -3.77314498	      0.00000000	      0.00000000	     23.26118007	     -2.18626715	     -0.93107041	     86.32053098	      1.50657748	    -10.97597015	      0.00000000	      0.00000000	     -4.21241353	     -1.08801857	     -2.83239142	     81.49853342	     -7.68860435	     27.41019331	     29.11890852	     76.08534191	      0.00000000	      0.00000000	     78.27689416	    -13.36427065	     28.82121441	     35.98369768	     77.81883032	      0.00000000	      0.00000000
      2.22500000	     -7.92697627	      4.55593157	      2.64672469	     -0.30864317	      0.98583906	     -0.74038044	     18.00053384	     -1.08138267	     -5.71446990	     22.44442427	      0.39172910	     -3.61650063	      0.00000000	      0.00000000	     23.29683140	     -2.23350032	     -0.83998145	     86.27114196	      1.50571548	    -10.76506778	      0.00000000	      0.00000000	     -4.20336261	     -1.00981376	     -2.78672047	     81.81106914	     -7.90512142	     28.50943959	     29.04954419	     77.10036001	      0.00000000	      0.00000000	     78.72633240	    -13.59302548	     30.10614328	     35.71596194	     79.53730819	      0.00000000	      0.00000000
      2.23000000	     -8.07205099	      4.57771389	      2.69229762	     -0.30930727	      0.98524874	     -0.74038682	     18.36757888	     -1.13931117	     -5.73866944	     22.82455844	      0.39836370	     -3.47110323	      0.00000000	      0.00000000	     23.36060704	     -2.17861000	     -0.72738649	     86.25727853	      1.50547351	    -10.82068190	      0.00000000	      0.00000000	     -4.23938345	     -1.03205529	     -2.84522229	     81.94372145	     -7.76612912	     28.06724484	     28.91434548	     77.51797842	      0.00000000	      0.00000000	     78.76428060	    -13.51169964	     29.54214222	     35.79044481	     80.23792125	      0.00000000	      0.00000000
      2.23500000	     -8.20000555	      4.47118113	      2.70934966	     -0.30986388	      0.98469268	     -0.74026911	     18.59769481	     -1.01292198	     -5.67885479	     22.92898926	      0.40018636	     -3.39309151	      0.00000000	      0.00000000	     23.36562609	     -2.29104518	     -0.60712431	     86.21704629	      1.50477133	    -10.65865919	      0.00000000	      0.00000000	     -4.24975185	     -0.92850058	     -2.87128922	     82.07308712	     -7.86059104	     28.43753635	     29.05524217	     77.86875826	      0.00000000	      0.00000000	     78.98445314	    -13.55742424	     29.80528104	     35.63450622	     80.63654768	      0.00000000	      0.00000000
      2.24000000	     -8.35590716	      4.44507939	      2.75215055	     -0.31051819	      0.98407594	     -0.74022455	     18.92325551	     -1.00501570	     -5.67491710	     23.16995163	      0.40439194	     -3.27541062	      0.00000000	      0.00000000	     23.42727012	     -2.33270247	     -0.51714280	     86.18238456	      1.50416637	    -10.59853668	      0.00000000	      0.00000000	     -4.23909508	     -0.90575282	     -2.94390532	     82.26388322	     -7.81949943	     28.66873921	     28.87215165	     76.89286264	      0.00000000	      0.00000000	     79.14901059	    -13.59998769	     30.08853335	     35.58551009	     79.52063287	      0.00000000	      0.00000000
      2.24500000	     -8.59185827	      4.57360699	      2.84945266	     -0.31119729	      0.98346260	     -0.74031806	     19.33870959	     -1.20083946	     -5.76922810	     23.44705652	      0.40922834	     -3.13319396	      0.00000000	      0.00000000	     23.54224863	     -2.06811142	     -0.38624189	     86.15049949	      1.50360987	    -10.51601666	      0.00000000	      0.00000000	     -4.18004156	     -1.05920041	     -3.05935709	     82.26634474	     -7.72437660	     28.12622245	     29.02390018	     76.34324585	      0.00000000	      0.00000000	     79.13048528	    -13.48868663	     29.46779493	     35.76561018	     79.04916984	      0.00000000	      0.00000000
